<svg xmlns="http://www.w3.org/2000/svg" xmlns:xlink="http://www.w3.org/1999/xlink" width="200" zoomAndPan="magnify" viewBox="0 0 150 149.999998" height="200" preserveAspectRatio="xMidYMid meet" version="1.0"><defs><clipPath id="1511543224"><path d="M 51 86 L 149 86 L 149 150 L 51 150 Z M 51 86 " clip-rule="nonzero"/></clipPath><clipPath id="3a97799c44"><path d="M 0 74.453125 L 0 75.546875 C 0 95.292969 7.84375 114.230469 21.808594 128.191406 C 35.769531 142.15625 54.707031 150 74.453125 150 C 94.199219 150 113.140625 142.15625 127.101562 128.191406 C 141.066406 114.230469 148.910156 95.292969 148.910156 75.546875 L 148.910156 74.453125 C 148.910156 54.707031 141.066406 35.769531 127.101562 21.808594 C 113.140625 7.84375 94.199219 0 74.453125 0 C 54.707031 0 35.769531 7.84375 21.808594 21.808594 C 7.84375 35.769531 0 54.707031 0 74.453125 Z M 0 74.453125 " clip-rule="nonzero"/></clipPath><clipPath id="fbd18e400f"><path d="M 0 0 L 149 0 L 149 138 L 0 138 Z M 0 0 " clip-rule="nonzero"/></clipPath><clipPath id="aa8183baba"><path d="M 0 74.453125 L 0 75.546875 C 0 95.292969 7.84375 114.230469 21.808594 128.191406 C 35.769531 142.15625 54.707031 150 74.453125 150 C 94.199219 150 113.140625 142.15625 127.101562 128.191406 C 141.066406 114.230469 148.910156 95.292969 148.910156 75.546875 L 148.910156 74.453125 C 148.910156 54.707031 141.066406 35.769531 127.101562 21.808594 C 113.140625 7.84375 94.199219 0 74.453125 0 C 54.707031 0 35.769531 7.84375 21.808594 21.808594 C 7.84375 35.769531 0 54.707031 0 74.453125 Z M 0 74.453125 " clip-rule="nonzero"/></clipPath></defs><g clip-path="url(#1511543224)"><g clip-path="url(#3a97799c44)"><path fill="#ff6100" d="M 117.796875 107.617188 C 107.929688 120.554688 92.375 128.921875 74.90625 128.921875 C 70.773438 128.921875 66.714844 128.480469 62.785156 127.582031 L 51.8125 146.265625 C 59.242188 148.675781 66.984375 149.898438 74.90625 149.898438 C 85.011719 149.898438 94.820312 147.917969 104.0625 144.011719 C 112.984375 140.238281 120.992188 134.839844 127.867188 127.964844 C 133.820312 122.011719 138.664062 115.210938 142.308594 107.703125 C 142.875 106.539062 143.410156 105.347656 143.914062 104.152344 C 146.289062 98.542969 147.949219 92.722656 148.886719 86.742188 L 86.808594 86.742188 L 74.5 107.617188 Z M 117.796875 107.617188 " fill-opacity="1" fill-rule="nonzero"/></g></g><g clip-path="url(#fbd18e400f)"><g clip-path="url(#aa8183baba)"><path fill="#ff6100" d="M 44.988281 6.316406 C 35.859375 10.296875 27.726562 15.980469 20.808594 23.199219 C 19.714844 24.339844 18.640625 25.535156 17.617188 26.746094 L 17.621094 26.75 C 17.449219 26.949219 17.277344 27.152344 17.105469 27.359375 L 45.105469 75.003906 L 29.847656 100.972656 L 2.613281 55.308594 C 0.890625 61.65625 0 68.273438 0 75.003906 C 0 82.765625 1.171875 90.359375 3.484375 97.652344 C 4.183594 99.847656 4.984375 102.019531 5.890625 104.164062 C 8.726562 110.871094 12.492188 117.066406 17.109375 122.648438 C 18.34375 124.140625 19.636719 125.59375 20.992188 126.996094 L 21.019531 127.042969 L 21.890625 127.914062 L 21.941406 127.960938 C 25.335938 131.359375 29.007812 134.390625 32.933594 137.050781 C 32.9375 137.054688 32.941406 137.054688 32.941406 137.058594 L 69.394531 75 L 43.566406 31.050781 C 52.640625 24.546875 63.46875 21.027344 74.902344 21.027344 C 92.371094 21.027344 107.925781 29.445312 117.792969 42.273438 L 74.503906 42.273438 L 86.808594 63.257812 L 148.886719 63.257812 C 147.949219 57.277344 146.289062 51.460938 143.914062 45.847656 C 143.40625 44.652344 142.871094 43.46875 142.308594 42.304688 C 138.664062 34.796875 133.820312 27.992188 127.867188 22.039062 C 120.992188 15.164062 112.984375 9.761719 104.0625 5.988281 C 94.816406 2.085938 85.007812 0.105469 74.902344 0.105469 C 64.511719 0.105469 54.449219 2.195312 44.988281 6.316406 Z M 44.988281 6.316406 " fill-opacity="1" fill-rule="nonzero"/></g></g></svg>