<svg xmlns="http://www.w3.org/2000/svg" xmlns:xlink="http://www.w3.org/1999/xlink" width="300" zoomAndPan="magnify" viewBox="0 0 224.87999 74.999997" height="100" preserveAspectRatio="xMidYMid meet" version="1.0"><defs><g/><clipPath id="a3975fc573"><path d="M 25 43 L 74 43 L 74 74.972656 L 25 74.972656 Z M 25 43 " clip-rule="nonzero"/></clipPath><clipPath id="185e692a38"><path d="M 0 0.0195312 L 74 0.0195312 L 74 69 L 0 69 Z M 0 0.0195312 " clip-rule="nonzero"/></clipPath><clipPath id="a24916d57f"><path d="M 84 0.0195312 L 88 0.0195312 L 88 74.980469 L 84 74.980469 Z M 84 0.0195312 " clip-rule="nonzero"/></clipPath></defs><g clip-path="url(#a3975fc573)"><path fill="#ff6100" d="M 58.511719 53.492188 C 53.609375 59.917969 45.882812 64.074219 37.207031 64.074219 C 35.152344 64.074219 33.136719 63.855469 31.183594 63.410156 L 25.734375 72.6875 C 29.425781 73.886719 33.269531 74.492188 37.207031 74.492188 C 42.226562 74.492188 47.097656 73.511719 51.6875 71.570312 C 56.121094 69.695312 60.097656 67.015625 63.511719 63.597656 C 66.46875 60.644531 68.875 57.261719 70.683594 53.535156 C 70.964844 52.957031 71.230469 52.367188 71.480469 51.769531 C 72.660156 48.984375 73.484375 46.09375 73.953125 43.125 L 43.117188 43.125 L 37.003906 53.492188 Z M 58.511719 53.492188 " fill-opacity="1" fill-rule="nonzero"/></g><g clip-path="url(#185e692a38)"><path fill="#ff6100" d="M 22.347656 3.175781 C 17.8125 5.152344 13.769531 7.976562 10.335938 11.5625 C 9.792969 12.128906 9.257812 12.722656 8.75 13.324219 L 8.753906 13.324219 C 8.667969 13.425781 8.582031 13.527344 8.496094 13.628906 L 22.402344 37.292969 L 14.824219 50.191406 L 1.296875 27.511719 C 0.441406 30.664062 0 33.949219 0 37.292969 C 0 41.148438 0.582031 44.921875 1.730469 48.542969 C 2.078125 49.632812 2.476562 50.714844 2.925781 51.777344 C 4.335938 55.109375 6.203125 58.183594 8.5 60.957031 C 9.113281 61.699219 9.753906 62.421875 10.425781 63.117188 L 10.441406 63.140625 L 10.898438 63.597656 C 12.585938 65.285156 14.40625 66.792969 16.359375 68.113281 C 16.359375 68.113281 16.359375 68.113281 16.363281 68.117188 L 34.46875 37.292969 L 21.640625 15.460938 C 26.144531 12.230469 31.527344 10.484375 37.203125 10.484375 C 45.882812 10.484375 53.605469 14.664062 58.507812 21.035156 L 37.007812 21.035156 L 43.117188 31.457031 L 73.953125 31.457031 C 73.484375 28.488281 72.660156 25.601562 71.480469 22.8125 C 71.230469 22.21875 70.964844 21.628906 70.683594 21.050781 C 68.875 17.324219 66.46875 13.941406 63.511719 10.984375 C 60.097656 7.570312 56.121094 4.886719 51.6875 3.015625 C 47.097656 1.078125 42.222656 0.0898438 37.203125 0.0898438 C 32.042969 0.0898438 27.042969 1.128906 22.347656 3.175781 Z M 22.347656 3.175781 " fill-opacity="1" fill-rule="nonzero"/></g><g clip-path="url(#a24916d57f)"><path stroke-linecap="round" transform="matrix(0, -3.747658, 3.747658, 0, 84.1031, 74.974898)" fill="none" stroke-linejoin="miter" d="M 0.499868 0.499902 L 19.392916 0.499902 " stroke="#f3f6fa" stroke-width="1" stroke-opacity="1" stroke-miterlimit="4"/></g><g fill="#f3f6fa" fill-opacity="1"><g transform="translate(97.599749, 32.093966)"><g><path d="M 10.5625 -19.703125 C 13.070312 -19.703125 15.019531 -19.097656 16.40625 -17.890625 C 17.800781 -16.679688 18.5 -14.984375 18.5 -12.796875 C 18.5 -10.460938 17.800781 -8.65625 16.40625 -7.375 C 15.019531 -6.09375 13.070312 -5.453125 10.5625 -5.453125 L 7.0625 -5.453125 L 7.0625 0 L 1.90625 0 L 1.90625 -19.703125 Z M 10.3125 -9.5625 C 11.363281 -9.5625 12.175781 -9.820312 12.75 -10.34375 C 13.320312 -10.863281 13.609375 -11.625 13.609375 -12.625 C 13.609375 -13.570312 13.320312 -14.300781 12.75 -14.8125 C 12.175781 -15.332031 11.363281 -15.59375 10.3125 -15.59375 L 7.0625 -15.59375 L 7.0625 -9.5625 Z M 10.3125 -9.5625 "/></g></g></g><g fill="#f3f6fa" fill-opacity="1"><g transform="translate(121.576307, 32.093966)"><g><path d="M 1.90625 0 L 1.90625 -19.703125 L 7.0625 -19.703125 L 7.0625 -11.671875 L 15.015625 -11.671875 L 15.015625 -19.703125 L 20.15625 -19.703125 L 20.15625 0 L 15.015625 0 L 15.015625 -7.5625 L 7.0625 -7.5625 L 7.0625 0 Z M 1.90625 0 "/></g></g></g><g fill="#f3f6fa" fill-opacity="1"><g transform="translate(148.504134, 32.093966)"><g><path d="M 14.21875 -19.703125 L 19.375 -19.703125 L 12.25 -6.296875 L 12.25 0 L 7.109375 0 L 7.109375 -6.15625 L -0.140625 -19.703125 L 5 -19.703125 L 9.671875 -11.25 Z M 14.21875 -19.703125 "/></g></g></g><g fill="#f3f6fa" fill-opacity="1"><g transform="translate(172.593115, 32.093966)"><g><path d="M 1.90625 0 L 1.90625 -19.703125 L 17.453125 -19.703125 L 17.453125 -15.59375 L 7.0625 -15.59375 L 7.0625 -11.921875 L 16.4375 -11.921875 L 16.4375 -7.84375 L 7.0625 -7.8125 L 7.0625 -4.109375 L 17.734375 -4.109375 L 17.734375 0 Z M 1.90625 0 "/></g></g></g><g fill="#f3f6fa" fill-opacity="1"><g transform="translate(196.429138, 32.093966)"><g><path d="M 15.484375 -13.78125 C 14.441406 -14.394531 13.320312 -14.894531 12.125 -15.28125 C 10.9375 -15.675781 9.941406 -15.875 9.140625 -15.875 C 8.503906 -15.875 8 -15.753906 7.625 -15.515625 C 7.257812 -15.285156 7.078125 -14.945312 7.078125 -14.5 C 7.078125 -14.070312 7.238281 -13.710938 7.5625 -13.421875 C 7.882812 -13.128906 8.273438 -12.894531 8.734375 -12.71875 C 9.203125 -12.539062 9.898438 -12.3125 10.828125 -12.03125 C 12.191406 -11.632812 13.316406 -11.238281 14.203125 -10.84375 C 15.097656 -10.457031 15.863281 -9.851562 16.5 -9.03125 C 17.132812 -8.21875 17.453125 -7.15625 17.453125 -5.84375 C 17.453125 -4.53125 17.101562 -3.410156 16.40625 -2.484375 C 15.71875 -1.554688 14.769531 -0.859375 13.5625 -0.390625 C 12.351562 0.078125 11.007812 0.3125 9.53125 0.3125 C 7.894531 0.3125 6.265625 0.0234375 4.640625 -0.546875 C 3.023438 -1.117188 1.628906 -1.898438 0.453125 -2.890625 L 2.453125 -6.921875 C 3.441406 -6.035156 4.613281 -5.3125 5.96875 -4.75 C 7.332031 -4.1875 8.535156 -3.90625 9.578125 -3.90625 C 10.347656 -3.90625 10.953125 -4.046875 11.390625 -4.328125 C 11.835938 -4.609375 12.0625 -5.019531 12.0625 -5.5625 C 12.0625 -6.007812 11.894531 -6.382812 11.5625 -6.6875 C 11.238281 -6.988281 10.828125 -7.226562 10.328125 -7.40625 C 9.828125 -7.582031 9.128906 -7.796875 8.234375 -8.046875 C 6.890625 -8.410156 5.773438 -8.785156 4.890625 -9.171875 C 4.003906 -9.554688 3.25 -10.140625 2.625 -10.921875 C 2 -11.703125 1.6875 -12.738281 1.6875 -14.03125 C 1.6875 -15.25 2.007812 -16.316406 2.65625 -17.234375 C 3.300781 -18.148438 4.21875 -18.851562 5.40625 -19.34375 C 6.601562 -19.84375 7.988281 -20.09375 9.5625 -20.09375 C 10.976562 -20.09375 12.378906 -19.890625 13.765625 -19.484375 C 15.160156 -19.085938 16.378906 -18.550781 17.421875 -17.875 Z M 15.484375 -13.78125 "/></g></g></g><g fill="#f3f6fa" fill-opacity="1"><g transform="translate(97.599749, 64.697934)"><g><path d="M 15.109375 -14.171875 C 14.097656 -14.796875 13.023438 -15.289062 11.890625 -15.65625 C 10.753906 -16.019531 9.785156 -16.203125 8.984375 -16.203125 C 8.210938 -16.203125 7.601562 -16.0625 7.15625 -15.78125 C 6.707031 -15.5 6.484375 -15.085938 6.484375 -14.546875 C 6.484375 -13.847656 6.804688 -13.316406 7.453125 -12.953125 C 8.097656 -12.585938 9.09375 -12.210938 10.4375 -11.828125 C 11.789062 -11.429688 12.898438 -11.035156 13.765625 -10.640625 C 14.640625 -10.242188 15.382812 -9.648438 16 -8.859375 C 16.625 -8.078125 16.9375 -7.039062 16.9375 -5.75 C 16.9375 -4.5 16.601562 -3.421875 15.9375 -2.515625 C 15.269531 -1.609375 14.351562 -0.921875 13.1875 -0.453125 C 12.03125 0.015625 10.710938 0.25 9.234375 0.25 C 7.640625 0.25 6.078125 -0.03125 4.546875 -0.59375 C 3.015625 -1.15625 1.6875 -1.921875 0.5625 -2.890625 L 2.328125 -6.515625 C 3.316406 -5.617188 4.457031 -4.894531 5.75 -4.34375 C 7.039062 -3.800781 8.222656 -3.53125 9.296875 -3.53125 C 10.210938 -3.53125 10.925781 -3.695312 11.4375 -4.03125 C 11.957031 -4.375 12.21875 -4.863281 12.21875 -5.5 C 12.21875 -6.007812 12.039062 -6.425781 11.6875 -6.75 C 11.34375 -7.082031 10.90625 -7.347656 10.375 -7.546875 C 9.84375 -7.753906 9.109375 -7.988281 8.171875 -8.25 C 6.828125 -8.625 5.726562 -9 4.875 -9.375 C 4.019531 -9.75 3.28125 -10.316406 2.65625 -11.078125 C 2.039062 -11.847656 1.734375 -12.875 1.734375 -14.15625 C 1.734375 -15.332031 2.050781 -16.363281 2.6875 -17.25 C 3.332031 -18.144531 4.222656 -18.828125 5.359375 -19.296875 C 6.503906 -19.773438 7.832031 -20.015625 9.34375 -20.015625 C 10.695312 -20.015625 12.023438 -19.816406 13.328125 -19.421875 C 14.640625 -19.035156 15.800781 -18.515625 16.8125 -17.859375 Z M 15.109375 -14.171875 "/></g></g></g><g fill="#f3f6fa" fill-opacity="1"><g transform="translate(120.340093, 64.697934)"><g><path d="M 11.3125 -19.96875 C 13.28125 -19.96875 15.066406 -19.523438 16.671875 -18.640625 C 18.285156 -17.765625 19.554688 -16.550781 20.484375 -15 C 21.410156 -13.457031 21.875 -11.742188 21.875 -9.859375 C 21.875 -7.960938 21.410156 -6.238281 20.484375 -4.6875 C 19.554688 -3.132812 18.285156 -1.910156 16.671875 -1.015625 C 15.066406 -0.128906 13.28125 0.3125 11.3125 0.3125 C 9.351562 0.3125 7.566406 -0.128906 5.953125 -1.015625 C 4.335938 -1.910156 3.066406 -3.128906 2.140625 -4.671875 C 1.222656 -6.210938 0.765625 -7.941406 0.765625 -9.859375 C 0.765625 -11.742188 1.222656 -13.457031 2.140625 -15 C 3.066406 -16.550781 4.332031 -17.765625 5.9375 -18.640625 C 7.539062 -19.523438 9.332031 -19.96875 11.3125 -19.96875 Z M 11.375 -16.09375 C 10.289062 -16.09375 9.28125 -15.816406 8.34375 -15.265625 C 7.40625 -14.710938 6.664062 -13.957031 6.125 -13 C 5.582031 -12.039062 5.3125 -10.992188 5.3125 -9.859375 C 5.3125 -8.691406 5.585938 -7.628906 6.140625 -6.671875 C 6.691406 -5.722656 7.429688 -4.96875 8.359375 -4.40625 C 9.285156 -3.84375 10.289062 -3.5625 11.375 -3.5625 C 12.457031 -3.5625 13.453125 -3.835938 14.359375 -4.390625 C 15.265625 -4.941406 15.984375 -5.695312 16.515625 -6.65625 C 17.054688 -7.625 17.328125 -8.691406 17.328125 -9.859375 C 17.328125 -10.992188 17.054688 -12.039062 16.515625 -13 C 15.984375 -13.957031 15.265625 -14.710938 14.359375 -15.265625 C 13.453125 -15.816406 12.457031 -16.09375 11.375 -16.09375 Z M 11.375 -16.09375 "/></g></g></g><g fill="#f3f6fa" fill-opacity="1"><g transform="translate(147.824665, 64.697934)"><g><path d="M 2.15625 0 L 2.15625 -19.65625 L 16.28125 -19.65625 L 16.25 -15.96875 L 6.59375 -15.96875 L 6.59375 -11.140625 L 15.46875 -11.140625 L 15.46875 -7.4375 L 6.59375 -7.4375 L 6.59375 0 Z M 2.15625 0 "/></g></g></g><g fill="#f3f6fa" fill-opacity="1"><g transform="translate(169.385977, 64.697934)"><g><path d="M 0.21875 -15.890625 L 0.21875 -19.65625 L 16.65625 -19.65625 L 16.65625 -15.890625 L 10.640625 -15.890625 L 10.640625 0 L 6.203125 0 L 6.203125 -15.890625 Z M 0.21875 -15.890625 "/></g></g></g></svg>